<?xml version="1.0" standalone="no"?>
<!DOCTYPE svg PUBLIC "-//W3C//DTD SVG 20010904//EN"
 "http://www.w3.org/TR/2001/REC-SVG-20010904/DTD/svg10.dtd">
<svg version="1.0" xmlns="http://www.w3.org/2000/svg"
 width="300.000000pt" height="300.000000pt" viewBox="0 0 300.000000 300.000000"
 preserveAspectRatio="xMidYMid meet">
<metadata>
Created by potrace 1.14, written by Peter Selinger 2001-2017
</metadata>
<g transform="translate(0.000000,300.000000) scale(0.100000,-0.100000)"
fill="#000000" stroke="none">
<path d="M1387 2944 c-2 -2 -19 -4 -40 -6 -36 -2 -37 -4 -59 -68 -20 -57 -23
-86 -24 -236 l0 -171 35 8 c90 19 258 27 318 15 11 -2 43 -8 70 -12 72 -10
204 -57 289 -103 282 -152 473 -434 513 -755 9 -68 7 -209 -3 -276 -54 -350
-314 -659 -663 -784 -39 -14 -78 -26 -88 -26 -11 0 36 53 124 141 l142 140 0
89 c0 84 1 88 24 94 40 10 92 68 105 115 38 141 -89 262 -225 215 -151 -51
-161 -261 -16 -325 17 -8 31 -20 32 -26 0 -7 1 -38 2 -69 l0 -56 -144 -145
-144 -144 -3 343 -2 343 185 185 185 186 1 87 1 87 31 15 c65 29 99 78 103
149 5 107 -71 186 -179 186 -56 0 -105 -28 -141 -78 -52 -74 -36 -182 36 -235
18 -13 41 -27 51 -30 18 -7 19 -11 18 -96 l0 -53 -185 -186 -186 -185 0 -615
0 -614 70 4 c39 3 72 7 74 9 1 2 17 46 36 97 26 75 36 92 53 92 56 0 279 92
394 161 l32 20 80 -41 c44 -22 87 -40 96 -40 20 0 265 245 265 265 0 9 -18 51
-40 96 l-41 80 40 67 c53 92 109 227 137 335 1 4 2 16 3 26 1 15 23 27 95 52
111 39 104 24 104 229 1 196 6 183 -100 221 -49 18 -91 37 -93 43 -42 156 -97
294 -155 387 l-30 49 40 85 c22 47 40 88 40 92 0 17 -110 136 -192 208 -84 74
-65 71 -162 23 l-87 -43 -32 19 c-90 53 -184 95 -278 125 -148 48 -146 47
-152 73 -8 37 -48 142 -57 152 -7 7 -296 17 -303 10z"/>
<path d="M1095 2709 c-33 -10 -115 -46 -182 -80 l-122 -61 -83 40 c-64 30 -87
37 -102 30 -24 -13 -231 -220 -244 -244 -8 -15 -1 -38 29 -102 21 -46 39 -88
39 -93 0 -6 -15 -33 -33 -62 -18 -29 -45 -81 -61 -117 -15 -36 -32 -74 -37
-85 -5 -11 -17 -51 -27 -90 -9 -38 -21 -75 -25 -81 -4 -7 -42 -24 -84 -40 -43
-15 -85 -33 -93 -41 -12 -10 -14 -47 -14 -188 0 -98 5 -180 10 -185 5 -5 48
-23 94 -39 l85 -29 26 -89 c41 -134 88 -241 151 -342 11 -18 7 -32 -30 -107
l-43 -86 38 -46 c48 -59 189 -197 218 -212 18 -10 35 -5 108 29 l87 40 67 -40
c87 -51 197 -96 298 -124 l80 -22 31 -89 c34 -98 39 -101 125 -103 29 -1 48 4
51 12 2 6 4 318 3 692 l-2 680 101 103 101 102 0 177 0 176 35 20 c64 35 100
93 100 160 0 92 -81 177 -168 177 -137 0 -224 -134 -166 -256 15 -32 48 -62
99 -90 18 -10 20 -22 20 -170 l1 -159 -54 -57 c-30 -32 -57 -56 -61 -54 -3 2
-6 91 -6 197 l0 193 -134 133 -133 132 0 256 c1 290 10 267 -93 234z m147
-655 l132 -129 1 -512 c0 -282 -2 -513 -5 -513 -3 0 -77 72 -165 160 l-160
160 0 186 -1 186 37 19 c144 73 124 288 -30 329 -20 5 -52 7 -71 4 -175 -28
-209 -253 -50 -334 l36 -18 -1 -201 -1 -201 206 -205 205 -205 0 -132 c0 -156
10 -147 -130 -111 -219 57 -422 199 -557 388 -47 66 -112 197 -134 271 -21 70
-17 53 -32 139 -74 420 144 853 527 1046 l56 28 3 -113 3 -113 131 -129z m435
210 c67 -43 63 -153 -7 -189 -65 -34 -135 -7 -161 62 -37 98 79 186 168 127z
m-608 -403 c13 -8 30 -29 37 -46 50 -121 -100 -214 -188 -116 -55 61 -19 162
63 180 37 8 52 5 88 -18z"/>
</g>
</svg>
